<svg id="Layer_5" enable-background="new 0 0 64 64" height="512" viewBox="0 0 64 64" width="512" xmlns="http://www.w3.org/2000/svg"><path d="m38 58v4h-26v-4h8 10z" fill="#969faa"/><g fill="#aab2bd"><path d="m36.55 55.11 1.45 2.89h-8v-4h4.76c.76 0 1.45.43 1.79 1.11z"/><path d="m30 54v4h-10v-4-4h10z"/><path d="m13.45 55.11c.34-.68 1.03-1.11 1.79-1.11h4.76v4h-8z"/></g><path d="m48 42v4c0 2.21-1.79 4-4 4h-14-10-14c-2.21 0-4-1.79-4-4v-4h14v2c0 1.1.9 2 2 2h4 6 4c1.1 0 2-.9 2-2v-2z" fill="#ccd1d9"/><path d="m16 42v2c0 1.1.9 2 2 2h14c1.1 0 2-.9 2-2v-2z" fill="#ff826e"/><path d="m44 26c0-2.611 1.671-4.827 4-5.651v-2.349h-42c-2.209 0-4 1.791-4 4v20h46v-10.349c-2.329-.824-4-3.04-4-5.651z" fill="#69d6f4"/><path d="m59 2v16l-.01.02-2.63-2.63-2.38 1.44c-.1-.05-.2-.08-.3-.12l-.68-2.71h-6l-.68 2.71c-.1.04-.2.07-.3.12l-2.38-1.44-2.61 2.61h-8.03v-16z" fill="#e6e9ed"/><path d="m22 26v3c0 1.38-.56 2.63-1.46 3.54-.91.9-2.16 1.46-3.54 1.46-2.76 0-5-2.24-5-5v-3h3 4z" fill="#aab2bd"/><path d="m17 2c-3.32 0-6.32 1.34-8.49 3.51s-3.51 5.17-3.51 8.49v.03c0 1.37.24 2.72.68 3.98.59 1.68 1.55 3.22 2.83 4.5l3.49 3.49h3 4 3l3.49-3.49c1.28-1.28 2.24-2.83 2.83-4.51.44-1.26.68-2.6.68-3.97v-.03c0-6.63-5.37-12-12-12z" fill="#ffeaa7"/><path d="m15 13v3h-3c-.83 0-1.58-.34-2.12-.88s-.88-1.29-.88-2.12.34-1.58.88-2.12 1.29-.88 2.12-.88c1.66 0 3 1.34 3 3z" fill="#fcd770"/><path d="m24.12 10.88c.54.54.88 1.29.88 2.12 0 1.66-1.34 3-3 3h-3v-3c0-.83.34-1.58.88-2.12s1.29-.88 2.12-.88 1.58.34 2.12.88z" fill="#fcd770"/><path d="m38 28h6.34c.83 2.33 3.05 4 5.66 4 3.74 0 6.67-3.41 5.87-7.29-.48-2.29-2.34-4.13-4.63-4.58-3.12-.63-5.93 1.17-6.89 3.84l-6.33.02 2.69-1.67c.04-.1.07-.2.12-.3l-1.44-2.38 1.64-1.64 2.61-2.61 2.38 1.44c.1-.05.2-.08.3-.12l.68-2.71h6l.68 2.71c.1.04.2.07.3.12l2.38-1.44 2.63 2.63 1.62 1.62-1.44 2.38c.05.1.08.2.12.3l2.71.68v6l-2.71.68c-.04.1-.07.2-.12.3l1.44 2.38-4.25 4.25-2.38-1.44c-.1.05-.2.08-.3.12l-.68 2.71h-5-1l-.68-2.71c-.1-.04-.2-.07-.3-.12l-2.38 1.44-4.25-4.25 1.44-2.38c-.05-.1-.08-.2-.12-.3z" fill="#ffc729"/><path d="m63 22.219-2.416-.603 1.281-2.134-1.865-1.866v-16.616h-28v16h-2.356c.226-.971.356-1.973.356-3 0-7.168-5.832-13-13-13s-13 5.832-13 13.029c0 1.111.153 2.197.422 3.245-1.987.671-3.422 2.548-3.422 4.726v24c0 2.757 2.243 5 5 5h13v2h-3.764c-1.144 0-2.172.636-2.684 1.658l-1.552 3.106v5.236h28v-5.236l-1.553-3.105c-.511-1.023-1.54-1.659-2.683-1.659h-3.764v-2h13c2.757 0 5-2.243 5-5v-7h4.781l.603-2.415 2.136 1.28 5.346-5.347-1.28-2.135 2.414-.602zm-29-19.219h24v12.615l-1.48-1.481-2.136 1.281-.603-2.415h-7.562l-.603 2.416-2.136-1.281-2.864 2.865h-6.616zm4.616 16-.481.481 1.426 2.376-1.825 1.13-5.738.013.004 2 13.053-.028.237-.661c.846-2.357 3.27-3.704 5.756-3.206 1.901.382 3.443 1.913 3.839 3.808.316 1.519-.05 3.063-1.005 4.238s-2.37 1.849-3.882 1.849c-2.116 0-4.011-1.339-4.715-3.333l-.236-.667h-10.049c-1.654 0-3 1.346-3 3v6c0 .552-.448 1-1 1s-1-.448-1-1v-2c0-1.654-1.346-3-3-3s-3 1.346-3 3v2c0 .552-.448 1-1 1h-4c-.552 0-1-.448-1-1v-1.09c2.833-.478 5-2.942 5-5.91v-2.586l3.192-3.192c1.228-1.229 2.18-2.66 2.826-4.222zm-25.616 8h8v2c0 2.206-1.794 4-4 4s-4-1.794-4-4zm1-12h-2c-1.103 0-2-.897-2-2s.897-2 2-2 2 .897 2 2zm4 10h-2v-8h2zm-1-22c6.065 0 11 4.935 11 11.029 0 2.938-1.145 5.7-3.222 7.778l-3.192 3.193h-1.586v-8h2c2.206 0 4-1.794 4-4s-1.794-4-4-4-4 1.794-4 4v2h-2v-2c0-2.206-1.794-4-4-4s-4 1.794-4 4 1.794 4 4 4h2v8h-1.586l-3.192-3.192c-2.077-2.079-3.222-4.841-3.222-7.808 0-6.065 4.935-11 11-11zm3 12v-2c0-1.103.897-2 2-2s2 .897 2 2-.897 2-2 2zm-4.764 40h3.764v2h-5.382l.724-1.447c.17-.341.512-.553.894-.553zm-2.236 6v-2h24v2zm21.764-6c.382 0 .725.212.895.553l.723 1.447h-5.382v-2zm-5.764 2h-8v-6h8zm15-8h-38c-1.654 0-3-1.346-3-3v-3h12v1c0 1.654 1.346 3 3 3h14c1.654 0 3-1.346 3-3v-1h12v3c0 1.654-1.346 3-3 3zm-11-6v1c0 .552-.448 1-1 1h-3v-2zm-6 2h-4v-2h4zm-6 0h-3c-.552 0-1-.448-1-1v-1h4zm26-4h-44v-19c0-1.308.863-2.436 2.057-2.837.643 1.495 1.565 2.873 2.75 4.059l3.193 3.192v2.586c0 2.967 2.167 5.431 5 5.91v1.09c0 1.654 1.346 3 3 3h4c1.654 0 3-1.346 3-3v-2c0-.552.448-1 1-1s1 .448 1 1v2c0 1.654 1.346 3 3 3s3-1.346 3-3v-6c0-.551.448-1 1-1h2.716l1.845 1.142-1.426 2.376 5.346 5.347 2.136-1.28.602 2.415h.781zm14-12.781-1.949.487-.534.202-.465 1.142 1.296 2.16-3.139 3.139-2.159-1.296-1.219.496-.612 2.451h-4.438l-.486-1.949-.202-.534-1.143-.465-2.159 1.296-3.139-3.139 1.296-2.16-.431-1.047-.003-.002h2.159c1.147 2.419 3.606 4 6.326 4 2.117 0 4.098-.943 5.435-2.587 1.336-1.644 1.85-3.797 1.41-5.908-.556-2.668-2.727-4.823-5.402-5.361-3.234-.651-6.384.944-7.758 3.831l-2.21.005.075-.06.398-.97-1.296-2.158 3.139-3.138 2.159 1.296 1.22-.503.612-2.447h4.438l.611 2.446 1.22.503 2.159-1.296 3.139 3.138-1.296 2.158.496 1.22 2.452.612z"/><path d="m28 23h2v2h-2z"/><path d="m36 5h2v2h-2z"/><path d="m40 5h16v2h-16z"/><path d="m36 9h20v2h-20z"/><path d="m36 13h2v2h-2z"/><path d="m40 13h2v2h-2z"/><path d="m5 33h2v2h-2z"/><path d="m5 37h2v2h-2z"/><path d="m5 29h2v2h-2z"/></svg>